<?xml version="1.0" encoding="utf-8"?>
<!-- Generator: Adobe Illustrator 23.0.3, SVG Export Plug-In . SVG Version: 6.00 Build 0)  -->
<svg version="1.1"
	 id="svg4619" inkscape:version="0.48.1 " sodipodi:docname="New document 3" xmlns:cc="http://creativecommons.org/ns#" xmlns:dc="http://purl.org/dc/elements/1.1/" xmlns:inkscape="http://www.inkscape.org/namespaces/inkscape" xmlns:rdf="http://www.w3.org/1999/02/22-rdf-syntax-ns#" xmlns:sodipodi="http://sodipodi.sourceforge.net/DTD/sodipodi-0.dtd" xmlns:svg="http://www.w3.org/2000/svg"
	 xmlns="http://www.w3.org/2000/svg" xmlns:xlink="http://www.w3.org/1999/xlink" x="0px" y="0px" viewBox="0 0 394.4 189.1"
	 style="enable-background:new 0 0 394.4 189.1;" xml:space="preserve">
<style type="text/css">
	.st0{fill:url(#SVGID_1_);}
	.st1{fill:url(#SVGID_2_);}
	.st2{fill:url(#SVGID_3_);}
	.st3{fill:url(#SVGID_4_);}
	.st4{fill:url(#SVGID_5_);}
	.st5{fill:url(#SVGID_6_);}
	.st6{fill:url(#SVGID_7_);}
	.st7{fill:url(#SVGID_8_);}
	.st8{fill:url(#SVGID_9_);}
	.st9{fill:url(#SVGID_10_);}
	.st10{fill:url(#SVGID_11_);}
	.st11{fill:url(#SVGID_12_);}
	.st12{fill:url(#SVGID_13_);}
	.st13{fill:url(#SVGID_14_);}
	.st14{fill:#63BBEB;}
	.st15{fill:url(#SVGID_15_);}
	.st16{fill:url(#SVGID_16_);}
	.st17{fill:#3777C5;}
	.st18{fill:#4980CA;}
	.st19{fill:#2F67AB;}
	.st20{fill:url(#SVGID_17_);}
	.st21{fill:url(#SVGID_18_);}
	.st22{fill:url(#SVGID_19_);}
	.st23{fill:url(#SVGID_20_);}
	.st24{fill:url(#SVGID_21_);}
	.st25{fill:#72C1ED;}
	.st26{fill:#326CB3;}
	.st27{fill:url(#SVGID_22_);}
	.st28{fill:url(#SVGID_23_);}
	.st29{fill:url(#SVGID_24_);}
	.st30{fill:url(#SVGID_25_);}
	.st31{fill:url(#SVGID_26_);}
	.st32{fill:url(#SVGID_27_);}
	.st33{fill:url(#SVGID_28_);}
	.st34{fill:url(#SVGID_29_);}
	.st35{fill:#AF0A55;}
	.st36{fill:url(#SVGID_30_);}
	.st37{fill:url(#SVGID_31_);}
	.st38{fill:url(#SVGID_32_);}
	.st39{fill:url(#SVGID_33_);}
	.st40{fill:url(#SVGID_34_);}
	.st41{fill:url(#SVGID_35_);}
	.st42{fill:url(#SVGID_36_);}
	.st43{fill:url(#SVGID_37_);}
	.st44{fill:url(#SVGID_38_);}
	.st45{fill:url(#SVGID_39_);}
	.st46{fill:url(#SVGID_40_);}
	.st47{fill:url(#SVGID_41_);}
	.st48{fill:url(#SVGID_42_);}
	.st49{fill:url(#SVGID_43_);}
	.st50{fill:url(#SVGID_44_);}
	.st51{fill:url(#SVGID_45_);}
	.st52{fill:url(#SVGID_46_);}
	.st53{fill:url(#SVGID_47_);}
	.st54{fill:url(#SVGID_48_);}
	.st55{fill:url(#SVGID_49_);}
	.st56{fill:url(#SVGID_50_);}
	.st57{fill:url(#SVGID_51_);}
	.st58{fill:url(#SVGID_52_);}
	.st59{fill:url(#SVGID_53_);}
	.st60{fill:#90C643;}
</style>
<g>
	<g>
		<radialGradient id="SVGID_1_" cx="92.4285" cy="142.2896" r="149.562" gradientUnits="userSpaceOnUse">
			<stop  offset="0" style="stop-color:#C11566"/>
			<stop  offset="0.9944" style="stop-color:#AF0A55"/>
			<stop  offset="0.9944" style="stop-color:#AF0A55"/>
			<stop  offset="1" style="stop-color:#AF0A55"/>
		</radialGradient>
		<path class="st0" d="M149.8,95.1c-3.2,0.1-4.2-1.8-4.4-3.4c-0.1-1.4,0.2-2.9,0.8-4.6c-6.4-1.7-13.6-3.7-21.3-6.1
			c-2,1.3-4.2,2.2-5.8,2c-0.5-0.1-0.8-0.5,0.3-2.1c0.1-0.2,0.5-0.7,1-1.3c-5.6-1.8-11.4-3.7-17.5-5.9C91.1,84.6,77.6,95.4,70.2,95.4
			c-3,0-5.7-2-5.7-6.7c0-3.1,4.1-13.4,12.4-24.9c-6.2-2.5-12.4-5.3-18.8-8.2C43.4,71,36.7,85,36.7,95c0,12.7,11.9,14.3,18.1,14.3
			c16.4,0,23.6-7.5,26.9-7.5c3.2,0-1.9,7.7-6.8,10.7c-40.6,24.5-73.9,45.6-73.9,65.2c0,8.8,8.2,9.4,14.4,9.4c6.2,0,36.6-3.9,83-75.9
			c2.2-3.4,5.8-5.3,9.2-7.8c3.4-2.5,14.5-10.6,16.7-10.6c2.2,0,2.1,0.9,2,1.9c-0.1,1.4-1.6,4.6-1.6,8.4c0,3.8,3.9,8.3,10.2,8.3
			c14.1,0,24.4-10.1,32.9-19.1c-2.8-0.6-6-1.3-9.5-2.1C154.8,92.9,151.5,95,149.8,95.1z M24.5,173.4c-2.8,0-4.1-1.5-4.1-4.2
			c0-8.7,30.1-31.4,33.7-31.5c0.9,0,1.2,0.4,1.2,1.1C55.3,145.9,33.3,173.4,24.5,173.4z"/>
		<radialGradient id="SVGID_2_" cx="320.764" cy="151.94" r="89.859" gradientUnits="userSpaceOnUse">
			<stop  offset="0" style="stop-color:#C11566"/>
			<stop  offset="0.9944" style="stop-color:#AF0A55"/>
			<stop  offset="0.9944" style="stop-color:#AF0A55"/>
			<stop  offset="1" style="stop-color:#AF0A55"/>
		</radialGradient>
		<path class="st1" d="M288.8,98.6c0,5.1,1.2,13.2,9.9,13.2c17.1,0,38.3-21.6,39.3-21.8c0.7-0.1,0.8,0.2,0.8,0.9
			c0,0.8-2.4,9.3-27.3,39.6c-24.9,30.3-37,42.2-37,48.7c0,6.5,5.5,8.9,8.1,8.9s13.5-0.6,39.4-42.8c18.5-30.1,27.3-48.7,37.1-63.6
			C341.2,89.5,318.9,94.5,288.8,98.6z"/>
		<radialGradient id="SVGID_3_" cx="247.0694" cy="106.7402" r="20.892" gradientUnits="userSpaceOnUse">
			<stop  offset="0" style="stop-color:#C11566"/>
			<stop  offset="0.9944" style="stop-color:#AF0A55"/>
			<stop  offset="0.9944" style="stop-color:#AF0A55"/>
			<stop  offset="1" style="stop-color:#AF0A55"/>
		</radialGradient>
		<path class="st2" d="M237.5,101.2c-1.8,2.8-3.4,5.2-4.5,6.9c0,0-1.3,1.6,0.7,1.6h18.5c0.8,0,1.6-0.7,2.2-1.6
			c0.2-0.3,2.1-3.2,4.5-6.9C252.1,101.4,244.9,101.4,237.5,101.2z"/>
		<radialGradient id="SVGID_4_" cx="205.5217" cy="105.4908" r="30.0134" gradientUnits="userSpaceOnUse">
			<stop  offset="0" style="stop-color:#C11566"/>
			<stop  offset="0.9944" style="stop-color:#AF0A55"/>
			<stop  offset="0.9944" style="stop-color:#AF0A55"/>
			<stop  offset="1" style="stop-color:#AF0A55"/>
		</radialGradient>
		<path class="st3" d="M185.1,95.9c0,6.1,2,14.8,16.1,14.8c7.8,0,15-4.2,21.1-10.3c-11.9-0.9-24.3-2.5-37.2-4.9
			C185.1,95.6,185.1,95.8,185.1,95.9z"/>
	</g>
	<g>
		
			<radialGradient id="SVGID_5_" cx="-99.2151" cy="513.0701" r="1" gradientTransform="matrix(121.7019 0 0 -121.7019 12300.3857 62504.6719)" gradientUnits="userSpaceOnUse">
			<stop  offset="0" style="stop-color:#63BBEB"/>
			<stop  offset="1" style="stop-color:#3777C5"/>
		</radialGradient>
		<path class="st4" d="M130.6,76.6c-0.9,0.9-3.2,2.9-5.7,4.4c7.8,2.4,14.9,4.4,21.3,6.1c1.2-3.1,3.5-6.5,6.3-9.9
			c-6.4-0.9-12.8-2-19.1-3.3C132.5,74.8,131.6,75.7,130.6,76.6z"/>
		
			<radialGradient id="SVGID_6_" cx="-99.2151" cy="513.0701" r="1" gradientTransform="matrix(121.7019 0 0 -121.7019 12300.3857 62504.6719)" gradientUnits="userSpaceOnUse">
			<stop  offset="0" style="stop-color:#63BBEB"/>
			<stop  offset="1" style="stop-color:#3777C5"/>
		</radialGradient>
		<path class="st5" d="M57.9,55.6c6.4,2.9,12.7,5.6,18.8,8.2c1-1.5,2.1-3,3.3-4.5c-6.6-2.3-13-4.6-19.1-6.9
			C59.9,53.5,58.9,54.5,57.9,55.6z"/>
		
			<radialGradient id="SVGID_7_" cx="-99.2151" cy="513.0701" r="1" gradientTransform="matrix(121.7019 0 0 -121.7019 12300.3857 62504.6719)" gradientUnits="userSpaceOnUse">
			<stop  offset="0" style="stop-color:#63BBEB"/>
			<stop  offset="1" style="stop-color:#3777C5"/>
		</radialGradient>
		<path class="st6" d="M108.9,68.1c-1.9,1.8-3.9,3.7-6,5.6c6.1,2.1,11.9,4.1,17.5,5.9c1.1-1.6,3.1-4.3,5.3-7.4
			C120,71,114.4,69.6,108.9,68.1z"/>
		
			<radialGradient id="SVGID_8_" cx="-99.2151" cy="513.0701" r="1" gradientTransform="matrix(121.7019 0 0 -121.7019 12300.3857 62504.6719)" gradientUnits="userSpaceOnUse">
			<stop  offset="0" style="stop-color:#63BBEB"/>
			<stop  offset="1" style="stop-color:#3777C5"/>
		</radialGradient>
		<path class="st7" d="M158.2,90L158.2,90c3.6,0.8,6.7,1.5,9.5,2.1c4.8-5.1,9-10,12.9-12.5c-4.2-0.2-8.4-0.5-12.6-0.8
			C166.5,82,162.3,86.6,158.2,90z"/>
		
			<radialGradient id="SVGID_9_" cx="-99.2151" cy="513.0701" r="1" gradientTransform="matrix(121.7019 0 0 -121.7019 12300.3857 62504.6719)" gradientUnits="userSpaceOnUse">
			<stop  offset="0" style="stop-color:#63BBEB"/>
			<stop  offset="1" style="stop-color:#3777C5"/>
		</radialGradient>
		<path class="st8" d="M227,78.2c-4.4,8.1-10.8,15.5-18.4,15.6c-2.4,0-3.9-1.3-3.9-3.5c-0.1-2.7,1.8-6.7,4.3-10.6
			c-7.1,0.3-14.1,0.4-21.1,0.3c-0.4,2.1-2.6,10-2.8,15.5c12.9,2.4,25.3,4,37.2,4.9c6.6-6.6,12-15.4,15.6-23.6
			C234.3,77.3,230.6,77.8,227,78.2z"/>
		
			<radialGradient id="SVGID_10_" cx="-99.2151" cy="513.0701" r="1" gradientTransform="matrix(121.7019 0 0 -121.7019 12300.3857 62504.6719)" gradientUnits="userSpaceOnUse">
			<stop  offset="0" style="stop-color:#63BBEB"/>
			<stop  offset="1" style="stop-color:#3777C5"/>
		</radialGradient>
		<path class="st9" d="M388.9,24.8c-3.9,0-12.5,8.7-12.5,13h0c0,3.2,4.8,5.3,6.4,5.3c2.5,0,10.7-5.3,10.7-12.7
			C393.5,27.8,391.7,24.8,388.9,24.8z"/>
		
			<radialGradient id="SVGID_11_" cx="-99.2151" cy="513.0701" r="1" gradientTransform="matrix(121.7019 0 0 -121.7019 12300.3857 62504.6719)" gradientUnits="userSpaceOnUse">
			<stop  offset="0" style="stop-color:#63BBEB"/>
			<stop  offset="1" style="stop-color:#3777C5"/>
		</radialGradient>
		<path class="st10" d="M378.3,46c-2.8,0-12.1,4.6-23.8,17.2h0c-11.7,12.7-25.7,29.7-38.4,29.7c-4.7,0-6.1-3-6.1-5.9
			c0-2.2,1.7-4.2,4.9-5.1c11.9-3.5,30.7-19.1,30.7-29.7c0-2.8-1.4-5.8-4.9-5.8c-5.2,0-19.6,2.4-37.6,23.9c-2,2.4-4.2,4-5.8,4
			c-1.7,0-3.7-3.2-3.7-9.5c0-0.7,0-1.3,0.1-1.9c-13.1,4.7-26.4,8.4-39.7,11.1c-4.4,8.6-11.4,19.5-16.5,27.2c7.4,0.2,14.5,0.2,21.4,0
			c4.6-7.1,11.2-17.3,11.6-17.8c0.5-0.8,1.3-1.3,2.1-1.3c2.9,0-0.7,7.4,10.2,7.4c3,0,6-1.6,6.8-1.6c0.8,0,0.9,0.7,0.9,1.3
			c0,1.2-1.5,3.9-1.7,7.7c0,0.5-0.1,1.1-0.1,1.7c30.1-4.1,52.5-9.1,70.2-16.8c3.9-6,9.7-13.9,13.8-17.9c7.7-7.5,9.7-11.5,9.7-13.3
			C382.4,48.3,381.1,46,378.3,46z M332.2,58c0.5,0,1.3,0.4,1.3,1.1c0,4.5-11.6,15-15.4,15c-0.8,0-1.5-0.5-1.5-1.4
			C316.6,69.2,328.3,58,332.2,58z"/>
	</g>
	<g>
		
			<radialGradient id="SVGID_12_" cx="-99.3856" cy="513.6356" r="1" gradientTransform="matrix(154.3956 0 0 -154.3956 15579.4395 79376.2188)" gradientUnits="userSpaceOnUse">
			<stop  offset="0" style="stop-color:#90C643"/>
			<stop  offset="0.8309" style="stop-color:#5FB233"/>
			<stop  offset="0.8309" style="stop-color:#5FB233"/>
			<stop  offset="1" style="stop-color:#5FB233"/>
		</radialGradient>
		<path class="st11" d="M295.4,45.7c-5,0-14.9,12.1-16.7,12.1c-1.4,0-3.1-5.5-4.7-7.7c-2.4-3.2-5.6-4-14.9-4
			c-4.7,0-7.3,0.4-11.5,0.4c-4.7,0-5.8-0.2-6.7-2.3c-0.9-2.1-14.8-38.6-46.3-38.6c-7,0-14.5,3.1-14.5,12.6h0
			c0,9.5,5.7,22.5,29.6,30.5c0.6,0.2,1.2,0.3,1.2,0.8c0,1-11.3,16.3-21.5,18c-1.2,0.2-2-0.8-2-1.9c0-1.1,1.6-4.3,1.6-9.1
			c0-4.8-1.5-11.7-10.7-11.7c-8.9,0-19.1,4.2-44.8,29.1c6.3,1.3,12.7,2.4,19.1,3.3c8-9.7,20.3-19.3,23.4-19.4
			c1.9-0.1,2.7,0.8,2.8,1.6c0.3,3.4-4.6,5.8-7.7,8c-3.6,2.6-4.7,3.4-4.4,5.5c0.2,1.2,1.9,1.5,2.1,3.6c0.1,0.6-0.2,1.4-0.7,2.3
			c4.1,0.4,8.3,0.6,12.6,0.8c1.8-1.1,3.5-1.8,5.3-1.8c1.5,0,2,0.6,2,1.6c0,0.1,0,0.2-0.1,0.5c7,0.1,14,0,21.1-0.3
			c3.7-5.7,8.8-11.4,11.2-12.8c4.1-2.5,6.3-4.9,6.3-6.3c0-1.4-3-3.3-3.3-4.6c-0.3-1.6,0.9-2.4,3.8-1.7c4.1,1,7,1.2,7.1,4.2
			c0.1,2.4-2.5,11.5-7.1,19.9c3.7-0.4,7.3-0.9,11-1.4c3.5-7.8,5.5-15,5.5-18.9c0-0.9,0.3-1.9,1.9-1.9c1.6,0,6,0.5,7.9,0.7
			c2.1,0.2,4.9,1.9,4.9,5.9c0,2.5-1.6,6.6-4.1,11.5c13.3-2.7,26.7-6.4,39.7-11.1c0.6-8.4,4.7-11.8,4.7-14.5
			C298.4,46.5,297.6,45.7,295.4,45.7z M229.5,46.3c-7,0-33.7-10.4-33.7-23.7v0v0l0,0c0-4.2,2.9-6.6,6.9-6.6
			c19.1,0,28.7,27.2,28.7,28.9C231.4,45.8,230.9,46.3,229.5,46.3z"/>
		
			<radialGradient id="SVGID_13_" cx="-99.3856" cy="513.6356" r="1" gradientTransform="matrix(154.3956 0 0 -154.3956 15579.4395 79376.2188)" gradientUnits="userSpaceOnUse">
			<stop  offset="0" style="stop-color:#90C643"/>
			<stop  offset="0.8309" style="stop-color:#5FB233"/>
			<stop  offset="0.8309" style="stop-color:#5FB233"/>
			<stop  offset="1" style="stop-color:#5FB233"/>
		</radialGradient>
		<path class="st12" d="M159.9,21.3c0.7,0.1,0.9,0,1.2-0.5c0.4-0.7,10.5-18.6,10.5-18.6c0.2-0.3,0.1-0.5-0.2-0.6
			c-0.2-0.1-2-0.7-5.7-0.7c-15.1,0-48,7.5-81.2,31.6h0C75.3,39.2,67.5,45.9,61,52.4c6.1,2.3,12.4,4.7,19.1,6.9
			c3.6-4.6,7.8-9.2,12.5-13.6c18.7-17.2,40.4-25.6,53.8-25.6C152.1,20.1,158.9,21.2,159.9,21.3z"/>
		
			<radialGradient id="SVGID_14_" cx="-99.3856" cy="513.6356" r="1" gradientTransform="matrix(154.3956 0 0 -154.3956 15579.4395 79376.2188)" gradientUnits="userSpaceOnUse">
			<stop  offset="0" style="stop-color:#90C643"/>
			<stop  offset="0.8309" style="stop-color:#5FB233"/>
			<stop  offset="0.8309" style="stop-color:#5FB233"/>
			<stop  offset="1" style="stop-color:#5FB233"/>
		</radialGradient>
		<path class="st13" d="M143.6,48.3c0-1.3-1.8-2.3-4-2.3c-1.9,0-9.6,1.3-15.5,7c-2.1,2.1-8,8.1-15.2,15.1c5.5,1.5,11.1,2.9,16.8,4.1
			c5.1-7,11.7-16,13.5-18C142.1,51,143.6,49.4,143.6,48.3z"/>
	</g>
	<path class="st14" d="M132.3,73.7c-0.8,0.7-1.6,1.5-2.3,2.3c-1.4,1.4-3.9,3.4-6.2,4.7c0.8,0.2,1.5,0.5,2.3,0.7
		c2.8-1.9,5.2-4.1,5.2-4.1c1.1-1.1,2.2-2.1,3.3-3.2C133.8,74,133.1,73.8,132.3,73.7z"/>
	
		<linearGradient id="SVGID_15_" gradientUnits="userSpaceOnUse" x1="-79.9112" y1="502.5716" x2="-78.9112" y2="502.5716" gradientTransform="matrix(10.818 9.0774 9.0774 -10.818 -3425.9097 6254.2358)">
		<stop  offset="0" style="stop-color:#4980CA"/>
		<stop  offset="1" style="stop-color:#63BBEB"/>
	</linearGradient>
	<path class="st15" d="M289.6,87c-0.4,0-1,0.2-1.8,0.5c-1.3,0.4-3.2,1.1-5.1,1.1c-6.4,0-7.2-2.6-7.7-4.7c-0.3-1.2-0.7-2.7-2.4-2.7
		c-1.1,0-2.1,0.6-2.9,1.7l-4,6.1c-2.3,3.6-5.4,8.4-7.9,12.2c0.7,0,1.5-0.1,2.2-0.1c2.1-3.2,4.6-7.1,7.2-11.1l4-6.1
		c0.4-0.6,0.9-0.9,1.4-0.9c0.2,0,0.3,0.1,0.7,1.3c0.6,2.3,1.7,6.1,9.5,6.1c2.2,0,4.3-0.7,5.7-1.2c0.4-0.1,0.9-0.3,1.1-0.3
		c0,0.1,0,0.2,0,0.4c0,0.3-0.2,1-0.5,1.7c-0.5,1.5-1.1,3.5-1.3,5.9c0,0.6-0.1,1.2-0.1,1.9c0.6-0.1,1.2-0.2,1.8-0.2
		c0-0.6,0-1.1,0.1-1.5c0.1-2.2,0.7-4.1,1.2-5.5c0.3-1,0.5-1.7,0.5-2.3C291.4,87.2,290.2,87,289.6,87z"/>
	
		<linearGradient id="SVGID_16_" gradientUnits="userSpaceOnUse" x1="-116.8106" y1="531.1173" x2="-115.8106" y2="531.1173" gradientTransform="matrix(-12.8152 -7.6201 -7.6201 12.8152 2772.4841 -7607.3242)">
		<stop  offset="0" style="stop-color:#82C7EF"/>
		<stop  offset="1" style="stop-color:#3777C5"/>
	</linearGradient>
	<path class="st16" d="M225.9,78.3c-1.8,3.3-4,6.4-6.5,9c-3.5,3.7-7.2,5.5-10.8,5.5c-1.1,0-3-0.3-3-2.6c-0.1-2.7,1.9-6.7,4.5-10.6
		c-0.7,0-1.5,0.1-2.2,0.1c-2.4,3.9-4.1,7.8-4.1,10.6c0.1,2.7,1.9,4.4,4.9,4.4c4.1,0,8.2-2.1,12.1-6.1c2.8-2.9,5.3-6.7,7.4-10.5
		C227.4,78.1,226.6,78.2,225.9,78.3z"/>
	<g>
		<path class="st17" d="M145.4,86.9c0.6,0.2,1.2,0.3,1.8,0.5c1.1-2.8,3.3-6.2,6.5-10c-0.7-0.1-1.4-0.2-2.1-0.3
			C149,80.1,146.6,83.6,145.4,86.9z"/>
		<path class="st14" d="M101.9,73.4c0.6,0.2,1.3,0.5,1.9,0.7c2-1.9,4-3.8,6-5.7c-0.7-0.2-1.4-0.4-2-0.5
			C106,69.7,104,71.5,101.9,73.4z"/>
		<path class="st14" d="M167.1,78.8c-0.6,1.1-1.7,2.7-3.4,4.6c-2,2.3-4.4,4.6-6.7,6.4c0.8,0.2,1.5,0.3,2.2,0.5
			c2.2-1.9,4.3-4,5.8-5.7c2-2.2,3.3-4.1,4-5.6C168.4,78.9,167.8,78.9,167.1,78.8z"/>
		<path class="st18" d="M179.2,79.6c-3.2,2.3-6.5,5.9-10.2,9.8c-0.8,0.8-1.5,1.7-2.3,2.5c0.7,0.2,1.4,0.3,2.1,0.4
			c0.5-0.6,1.1-1.1,1.6-1.7c4.4-4.8,8.4-9.1,12-10.9C181.3,79.7,180.2,79.7,179.2,79.6z"/>
		<path class="st19" d="M75.9,63.4c0.6,0.2,1.2,0.5,1.7,0.7c1.1-1.5,2.2-3,3.4-4.5c-0.6-0.2-1.2-0.4-1.8-0.6
			C78,60.5,76.9,62,75.9,63.4z"/>
	</g>
	
		<linearGradient id="SVGID_17_" gradientUnits="userSpaceOnUse" x1="-97.4038" y1="507.0632" x2="-96.4038" y2="507.0632" gradientTransform="matrix(37.4539 0 0 -37.4539 3957.2297 19061.0605)">
		<stop  offset="0" style="stop-color:#2F67AB"/>
		<stop  offset="1" style="stop-color:#2D61A2"/>
	</linearGradient>
	<path class="st20" d="M344.7,52.2L344.7,52.2c0,10.3-18.7,25.5-30,28.8c-3.5,1-5.6,3.3-5.6,6h1.8c0-1.9,1.6-3.5,4.3-4.3
		c11.8-3.5,31.3-19.2,31.3-30.6H344.7z"/>
	
		<linearGradient id="SVGID_18_" gradientUnits="userSpaceOnUse" x1="-105.4043" y1="548.0005" x2="-104.4043" y2="548.0005" gradientTransform="matrix(-10.2946 1.3197 1.3197 10.2946 -1501.5829 -5434.8281)">
		<stop  offset="0" style="stop-color:#63BBEB"/>
		<stop  offset="1" style="stop-color:#3777C5"/>
	</linearGradient>
	<path class="st21" d="M309.7,61.8c-2.4,2.3-4.8,4.9-7.3,7.9c-1.9,2.3-3.9,3.7-5.1,3.7c-0.9,0-2.8-2.6-2.8-8.6c0-0.8,0-1.6,0.1-2.3
		c-0.6,0.2-1.2,0.5-1.9,0.7c0,0.5,0,1,0,1.6c0,7.2,2.4,10.4,4.6,10.4c2.5,0,5.1-2.7,6.5-4.4c2.3-2.7,4.5-5.2,6.7-7.3L309.7,61.8z"/>
	
		<linearGradient id="SVGID_19_" gradientUnits="userSpaceOnUse" x1="-80.4071" y1="466.062" x2="-79.4071" y2="466.062" gradientTransform="matrix(6.3337 0.5279 0.5279 -6.3337 599.1625 3049.7024)">
		<stop  offset="0" style="stop-color:#63BBEB"/>
		<stop  offset="1" style="stop-color:#2D61A2"/>
	</linearGradient>
	<path class="st22" d="M340.7,45.5c-4.7,0-16.2,1.8-31,16.3h0l0.8,1.8c15.1-15,26.7-16.3,30.2-16.3c3.8,0,4,4,4,4.9h1.8
		C346.5,48.8,344.7,45.5,340.7,45.5z"/>
	
		<linearGradient id="SVGID_20_" gradientUnits="userSpaceOnUse" x1="-161.396" y1="540.3917" x2="-160.396" y2="540.3917" gradientTransform="matrix(-3.2063 -4.0075 -4.0075 3.2063 1974.7197 -2311.6099)">
		<stop  offset="0" style="stop-color:#5AAAD7"/>
		<stop  offset="1" style="stop-color:#2F67AB"/>
	</linearGradient>
	<path class="st23" d="M332.2,57c-4.3,0-16.5,11.5-16.5,15.6c0,1.5,1.2,2.3,2.4,2.3c4.3,0,16.3-10.9,16.3-15.9
		C334.4,57.9,333.3,57,332.2,57z M318.2,73.2c-0.3,0-0.6-0.2-0.6-0.5h0c0-3.1,11.4-13.8,14.7-13.8c0.1,0,0.4,0.1,0.4,0.2
		C332.6,63,321.4,73.2,318.2,73.2z"/>
	
		<linearGradient id="SVGID_21_" gradientUnits="userSpaceOnUse" x1="-58.1604" y1="464.7794" x2="-57.1604" y2="464.7794" gradientTransform="matrix(4.7513 1.9797 1.9797 -4.7513 -260.7799 2356.23)">
		<stop  offset="0" style="stop-color:#63BBEB"/>
		<stop  offset="1" style="stop-color:#2B5C99"/>
	</linearGradient>
	<path class="st24" d="M388.9,23.9c-4.5,0-13.4,9.2-13.4,13.9c0,3.8,5.2,6.3,7.3,6.3c2.8,0,11.6-5.6,11.6-13.6
		C394.4,27.3,392.2,23.9,388.9,23.9z M382.8,42.2c-1.4,0-5.5-2-5.5-4.4c0-3.6,8.1-12.1,11.6-12.1c2.2,0,3.7,2.5,3.7,4.7
		C392.6,37.2,384.9,42.2,382.8,42.2z"/>
	<g>
		<path class="st25" d="M252.9,74.2c-4.5,8.8-11.7,19.7-16.4,26.9c0.7,0,1.4,0,2.1,0.1c5.2-7.9,12.2-18.8,16.5-27.5
			C254.4,73.9,253.6,74.1,252.9,74.2z"/>
		<path class="st14" d="M57,55.2c0.6,0.3,1.2,0.5,1.7,0.8c1-1.1,2.1-2.1,3.2-3.2c-0.6-0.2-1.2-0.5-1.8-0.7C59,53.1,58,54.2,57,55.2z
			"/>
		<path class="st26" d="M119.5,79.3c0.6,0.2,1.2,0.4,1.8,0.6c1.2-1.6,3.2-4.4,5.4-7.4c-0.6-0.1-1.3-0.3-1.9-0.4
			C122.5,75.2,120.6,77.9,119.5,79.3z"/>
		<path class="st14" d="M186.5,81.8c-0.8,3.2-2.2,9.1-2.3,13.5c0.6,0.1,1.2,0.2,1.8,0.3c0.1-4.2,1.5-10.2,2.3-13.4
			c0.3-1.2,0.4-1.9,0.5-2.3c-0.6,0-1.2,0-1.8,0C186.8,80.4,186.7,81.1,186.5,81.8z"/>
		<path class="st18" d="M236.9,76.9c-1.7,3.7-3.8,7.6-6.2,11.3c-2.2,3.5-5.5,8-9.6,12c0.8,0.1,1.6,0.1,2.3,0.2
			c6.6-6.8,12-15.7,15.6-23.8C238.3,76.7,237.6,76.8,236.9,76.9z"/>
	</g>
	
		<linearGradient id="SVGID_22_" gradientUnits="userSpaceOnUse" x1="-95.8283" y1="534.422" x2="-94.8283" y2="534.422" gradientTransform="matrix(-15.4422 8.711 8.711 15.4422 -5759.7388 -7363.5942)">
		<stop  offset="0" style="stop-color:#63BBEB"/>
		<stop  offset="1" style="stop-color:#2F67AB"/>
	</linearGradient>
	<path class="st27" d="M353.9,62.6L353.9,62.6l-3.6,4C339.4,78.5,327.1,92,316.1,92c-4.3,0-5.2-2.7-5.2-5h-1.8c0,4,2.2,6.4,6,6.8
		c3.9,0.1,6.5-0.6,10.8-2.7c8.8-4.7,17.6-14.4,25.7-23.3l3.6-3.9c11.7-12.7,20.7-16.9,23.1-16.9v-1.8
		C375.1,45.1,365.6,49.9,353.9,62.6z"/>
	
		<linearGradient id="SVGID_23_" gradientUnits="userSpaceOnUse" x1="5.7625" y1="483.5808" x2="6.7625" y2="483.5808" gradientTransform="matrix(1.7031 2.5546 2.5546 -1.7031 -880.4265 865.8856)">
		<stop  offset="0" style="stop-color:#63BBEB"/>
		<stop  offset="1" style="stop-color:#2B5C99"/>
	</linearGradient>
	<path class="st28" d="M378.3,45.1v1.8c2.2,0,3.2,1.8,3.2,3.6c0,0.8-0.7,4.1-9.4,12.6c-4.4,4.3-10.4,12.7-14.7,19.2
		c1-0.4,2.1-0.9,3.1-1.3c3.6-5.4,9.1-12.9,12.9-16.6c6.5-6.4,10-11.2,10-13.9C383.4,47.9,381.6,45.1,378.3,45.1z"/>
	
		<linearGradient id="SVGID_24_" gradientUnits="userSpaceOnUse" x1="-93.3949" y1="493.7686" x2="-92.3949" y2="493.7686" gradientTransform="matrix(14.7916 0 0 -14.7916 1525.9518 7395.0371)">
		<stop  offset="0" style="stop-color:#AF0A55"/>
		<stop  offset="1" style="stop-color:#DB4990"/>
	</linearGradient>
	<path class="st29" d="M157.1,89.8c-3.1,2.6-5.9,4.3-7.3,4.4c-2.1,0.1-3.3-0.8-3.4-2.6c-0.1-1.2,0.2-2.6,0.8-4.3
		c-0.6-0.2-1.2-0.3-1.8-0.5c-0.6,1.7-1,3.4-0.9,4.9c0.2,2.7,2.2,4.3,5.3,4.3c2.2-0.1,6-2.6,9.5-5.7C158.6,90.1,157.8,90,157.1,89.8z
		"/>
	
		<linearGradient id="SVGID_25_" gradientUnits="userSpaceOnUse" x1="-88.1697" y1="476.4398" x2="-87.1696" y2="476.4398" gradientTransform="matrix(8.2696 0 0 -8.2696 846.921 4021.5977)">
		<stop  offset="0" style="stop-color:#A2094D"/>
		<stop  offset="1" style="stop-color:#D73585"/>
	</linearGradient>
	<path class="st30" d="M123.8,80.7c-1.5,0.8-2.9,1.4-4,1.5c0.1-0.2,0.2-0.4,0.4-0.7c0.1-0.2,0.5-0.8,1.1-1.6
		c-0.6-0.2-1.2-0.4-1.8-0.6c-0.4,0.6-0.7,0.9-0.8,1.1h0c-0.8,1.2-1.1,2-0.8,2.7c0.2,0.4,0.6,0.7,1.1,0.8c2,0.3,4.7-1,7-2.6
		C125.3,81.1,124.5,80.9,123.8,80.7z"/>
	
		<linearGradient id="SVGID_26_" gradientUnits="userSpaceOnUse" x1="-48.4329" y1="499.0633" x2="-47.4329" y2="499.0633" gradientTransform="matrix(3.5639 5.1478 5.1478 -3.5639 -2359.5654 2181.3401)">
		<stop  offset="0" style="stop-color:#AF0A55"/>
		<stop  offset="1" style="stop-color:#DB4990"/>
	</linearGradient>
	<path class="st31" d="M55.7,137.4c-0.4-0.3-0.9-0.5-1.5-0.5c0,0,0,0-0.1,0c-2.4,0-11.6,6.6-18.8,12.7c-5.9,5-15.8,14.3-15.8,19.7
		c0,3.3,1.8,5.1,5,5.1c4.1,0,10-5,14.1-9.2c8.3-8.4,17.6-21.4,17.6-26.2C56.2,138.5,56.1,137.9,55.7,137.4z M54.4,138.9
		c0,3.9-8.4,16.3-17,24.9c-5.5,5.5-10.2,8.7-12.9,8.7c-2.2,0-3.2-1-3.2-3.2c0-8,29.4-30.5,32.8-30.5c0,0,0.1,0,0.2,0
		C54.3,138.8,54.4,138.9,54.4,138.9L54.4,138.9z"/>
	
		<linearGradient id="SVGID_27_" gradientUnits="userSpaceOnUse" x1="-84.9531" y1="504.9026" x2="-83.9531" y2="504.9026" gradientTransform="matrix(14.5114 11.1318 11.1318 -14.5114 -4315.3921 8347.3438)">
		<stop  offset="0" style="stop-color:#A2094D"/>
		<stop  offset="1" style="stop-color:#DB4990"/>
	</linearGradient>
	<path class="st32" d="M101.9,73.4C90.4,84,77.2,94.5,70.2,94.5c-3,0-4.8-2.2-4.8-5.8c0-3.2,4.2-13.3,12.3-24.5
		c-0.6-0.2-1.2-0.5-1.7-0.7C67.7,75,63.5,85.3,63.5,88.7c0,5.6,3.6,7.6,6.7,7.6c7.6,0,20.5-10,33.7-22.2
		C103.2,73.9,102.6,73.6,101.9,73.4z"/>
	
		<linearGradient id="SVGID_28_" gradientUnits="userSpaceOnUse" x1="-105.1662" y1="495.6164" x2="-104.1662" y2="495.6164" gradientTransform="matrix(13.9898 -8.447 -8.447 -13.9898 5719.481 6175.5825)">
		<stop  offset="0" style="stop-color:#DB4990"/>
		<stop  offset="1" style="stop-color:#AF0A55"/>
	</linearGradient>
	<path class="st33" d="M74.3,111.7C30.8,138,0,158.1,0,177.6h1.8c0-18.6,30.5-38.4,73.5-64.4L74.3,111.7z"/>
	
		<linearGradient id="SVGID_29_" gradientUnits="userSpaceOnUse" x1="-45.2653" y1="496.8242" x2="-44.2653" y2="496.8242" gradientTransform="matrix(3.4309 4.7503 4.7503 -3.4309 -2146.4392 2012.8895)">
		<stop  offset="0" style="stop-color:#DB4990"/>
		<stop  offset="1" style="stop-color:#AF0A55"/>
	</linearGradient>
	<path class="st34" d="M37.6,95c0-9.1,6-22.9,21.2-39c-0.6-0.3-1.2-0.5-1.7-0.8C41.8,71.5,35.8,85.6,35.8,95c0,9.6,6.9,15.2,19,15.2
		v-1.8C48.3,108.3,37.6,106.6,37.6,95z"/>
	<path class="st35" d="M83.4,102c-0.2-0.8-0.9-1.3-1.8-1.3c-1.2,0-2.7,0.8-4.7,1.8c-4.1,2.1-11.1,5.7-22.2,5.7v1.8
		c11.6,0,18.7-3.7,23-5.9c1.7-0.9,3.2-1.6,3.9-1.6c0.1,0,0.1,0.1,0.1,0.2c0,1.3-3.3,6.3-7.4,8.9l1,1.5
		C79.3,110.7,84.2,104.6,83.4,102z"/>
	
		<linearGradient id="SVGID_30_" gradientUnits="userSpaceOnUse" x1="-132.4901" y1="555.0862" x2="-131.4901" y2="555.0862" gradientTransform="matrix(-6.1365 -2.5734 -2.5734 6.1365 752.9744 -3650.3586)">
		<stop  offset="0" style="stop-color:#A2094D"/>
		<stop  offset="1" style="stop-color:#DF5E9C"/>
	</linearGradient>
	<path class="st36" d="M166.7,92c-8.2,8.8-18.3,18.4-31.8,18.4c-6.1,0-9.3-4.3-9.3-7.4h-1.8c0,4.4,4.5,9.2,11.1,9.2
		c14.7,0,25.3-10.6,33.9-19.8C168.1,92.3,167.4,92.1,166.7,92z"/>
	
		<linearGradient id="SVGID_31_" gradientUnits="userSpaceOnUse" x1="-63.0018" y1="479.5738" x2="-62.0018" y2="479.5738" gradientTransform="matrix(5.743 3.1685 3.1685 -5.743 -1122.7418 3076.1484)">
		<stop  offset="0" style="stop-color:#DB4990"/>
		<stop  offset="1" style="stop-color:#A2094D"/>
	</linearGradient>
	<path class="st37" d="M124.2,91.8c-1.7,0-6.3,2.9-16.4,10.2l-0.8,0.6l-2.1,1.5c-2.8,1.9-5.5,3.8-7.3,6.6
		c-46.4,71.8-76.7,75.5-82.3,75.5c-8.1,0-13.5-1.4-13.5-8.5H0c0,10.3,10.3,10.3,15.3,10.3c3.4,0,12.7-1.1,26.9-11.1
		c18-12.6,37.1-34.6,56.9-65.2c1.6-2.5,4.2-4.3,6.8-6.1l2.1-1.5l0.8-0.6c11.2-8.1,14.4-9.7,15.4-9.8c0.8-0.1,1,0.1,1.1,0.1l1.3-1.3
		C126,91.9,125.4,91.8,124.2,91.8z"/>
	
		<linearGradient id="SVGID_32_" gradientUnits="userSpaceOnUse" x1="-111.1333" y1="544.7823" x2="-110.1333" y2="544.7823" gradientTransform="matrix(-10.8878 -0.7919 -0.7919 10.8878 -577.1044 -5915.3882)">
		<stop  offset="0" style="stop-color:#A2094D"/>
		<stop  offset="1" style="stop-color:#DF5E9C"/>
	</linearGradient>
	<path class="st38" d="M221.1,100.3c-5.4,5.2-12.1,9.5-19.9,9.5c-10.2,0-15.2-4.5-15.2-13.9c0-0.1,0-0.2,0-0.3
		c-0.6-0.1-1.2-0.2-1.8-0.3c0,0.2,0,0.4,0,0.6v0c0,10.3,5.9,15.7,17,15.7c8.3,0,15.8-4.6,22.2-11.1
		C222.7,100.4,221.9,100.3,221.1,100.3z"/>
	
		<linearGradient id="SVGID_33_" gradientUnits="userSpaceOnUse" x1="-130.9758" y1="529.6473" x2="-129.9758" y2="529.6473" gradientTransform="matrix(-6.5588 -7.5524 -7.5524 6.5588 3388.7136 -4355.6875)">
		<stop  offset="0" style="stop-color:#A2094D"/>
		<stop  offset="1" style="stop-color:#DB4990"/>
	</linearGradient>
	<path class="st39" d="M257.8,101.2c-2.2,3.4-3.9,6-4.2,6.3c-0.6,0.9-1.2,1.2-1.5,1.2h-18.5h0c0,0,0-0.1,0.1-0.1l0,0l3.1-4.7
		c0.6-0.8,1.1-1.7,1.8-2.7c-0.7,0-1.4,0-2.1-0.1c-0.4,0.6-0.8,1.2-1.1,1.7c0,0-3,4.6-3,4.6c-0.2,0.2-0.6,0.8-0.6,1.5
		c0,0.2,0,0.4,0.1,0.6c0.2,0.4,0.7,0.9,1.9,0.9h18.5c1,0,2.1-0.7,3-2c0.2-0.3,2.2-3.3,4.9-7.5C259.3,101.1,258.6,101.2,257.8,101.2z
		"/>
	
		<linearGradient id="SVGID_34_" gradientUnits="userSpaceOnUse" x1="-171.2392" y1="553.9599" x2="-170.2392" y2="553.9599" gradientTransform="matrix(-2.9697 -2.9697 -2.9697 2.9697 1434.5374 -2041.9467)">
		<stop  offset="0" style="stop-color:#C01F6E"/>
		<stop  offset="1" style="stop-color:#D63384"/>
	</linearGradient>
	<path class="st40" d="M292.6,108.6c-2.5-2.6-2.9-7-2.9-10.1c-0.6,0.1-1.2,0.2-1.8,0.2c0,0,0,0.1,0,0.1c0,3.7,0.7,8.1,3.4,11
		c1.8,1.9,4.3,2.9,7.4,2.9v-1.8C296,110.9,294,110.1,292.6,108.6z"/>
	
		<linearGradient id="SVGID_35_" gradientUnits="userSpaceOnUse" x1="-149.8317" y1="509.9109" x2="-148.8317" y2="509.9109" gradientTransform="matrix(-1.1875 -6.6636 -6.6636 1.1875 3345.9224 -1502.3429)">
		<stop  offset="0" style="stop-color:#DF5E9C"/>
		<stop  offset="1" style="stop-color:#A2094D"/>
	</linearGradient>
	<path class="st41" d="M126.6,92.5l-0.6,0.6l0,0l-0.7,0.7c0.1,0.1,0.2,0.3,0.1,0.6c0,0.2-0.1,0.5-0.1,0.7c-0.1,0.2-0.2,1-0.5,1.8
		c-0.5,1.6-1.1,3.7-1.1,6.2h1.8c0-2.2,0.6-4.2,1-5.7c0.3-1,0.5-1.6,0.6-2.4l0-0.5C127.2,93.8,127.1,93,126.6,92.5z"/>
	
		<linearGradient id="SVGID_36_" gradientUnits="userSpaceOnUse" x1="-105.4889" y1="507.7217" x2="-104.4889" y2="507.7217" gradientTransform="matrix(21.975 -27.2073 -27.2073 -21.975 16437.0898 8429.1191)">
		<stop  offset="0" style="stop-color:#DF5E9C"/>
		<stop  offset="1" style="stop-color:#A2094D"/>
	</linearGradient>
	<path class="st42" d="M329.2,105.9c-4,5.8-9.9,13.6-18.5,24.1v0c-6.6,8.1-12.2,14.7-17.2,20.5c-13.8,16.2-20,23.6-20,28.8
		c0,2.6,0.8,4.6,2,6.2l1.1-1.5c-0.8-1.2-1.4-2.7-1.4-4.7c0-4.5,6.6-12.2,19.6-27.6c4.9-5.8,10.6-12.5,17.2-20.5
		c8.9-10.8,14.9-18.8,19-24.7L329.2,105.9z"/>
	
		<linearGradient id="SVGID_37_" gradientUnits="userSpaceOnUse" x1="-62.4883" y1="463.9256" x2="-61.4883" y2="463.9256" gradientTransform="matrix(5.0124 1.7394 1.7394 -5.0124 -195.9354 2561.1248)">
		<stop  offset="0" style="stop-color:#DF5E9C"/>
		<stop  offset="1" style="stop-color:#A2094D"/>
	</linearGradient>
	<path class="st43" d="M357.5,82.4L357.5,82.4c-4.6,7.2-7.5,12.7-13.1,22.7c-6.4,11.4-13.8,24.4-23.2,39.8
		c-22.6,36.8-33.9,42.3-38.6,42.3c-1.3,0-4.2-0.9-5.9-3.3l-1.1,1.5c2,2.5,5,3.7,7,3.7c8.9,0,22.8-14.9,40.2-43.2
		c9.5-15.5,16.8-28.4,23.3-39.9c6.2-11.1,9.5-17.4,14.6-24.9C359.5,81.5,358.5,82,357.5,82.4z"/>
	
		<linearGradient id="SVGID_38_" gradientUnits="userSpaceOnUse" x1="-97.632" y1="507.8202" x2="-96.632" y2="507.8202" gradientTransform="matrix(41.0332 0 0 -41.0332 4304.7559 20938.4297)">
		<stop  offset="0" style="stop-color:#C01F6E"/>
		<stop  offset="1" style="stop-color:#A2094D"/>
	</linearGradient>
	<path class="st44" d="M339.1,89.5c-0.3-0.3-0.7-0.3-1-0.3c-0.2,0-0.3,0-0.4,0.1c-0.4,0.1-0.7,0.3-2.8,2.1
		c-6.2,5.4-22.7,19.6-36.3,19.6v1.8c14.3,0,31.2-14.6,37.5-20.1c0.6-0.5,1.2-1,1.6-1.4c-0.4,1.2-2,5.2-8.5,14.6l1.9,0.5
		c8.4-12.2,8.6-15.4,8.6-15.5C339.6,90.6,339.6,89.9,339.1,89.5z"/>
	
		<linearGradient id="SVGID_39_" gradientUnits="userSpaceOnUse" x1="-21.2037" y1="460.424" x2="-20.2037" y2="460.424" gradientTransform="matrix(2.772 2.178 2.178 -2.772 -694.4784 1391.6747)">
		<stop  offset="0" style="stop-color:#5FB233"/>
		<stop  offset="1" style="stop-color:#90C643"/>
	</linearGradient>
	<path class="st45" d="M253.3,55.7l-0.9-0.1c-2.3-0.2-5.7-0.6-7.1-0.6c-1.7,0-2.8,1.1-2.8,2.8v0c0,4-2,11.2-5.7,19.1
		c0.7-0.1,1.4-0.2,2.1-0.3c3.4-7.7,5.3-14.7,5.3-18.8c0-0.8,0.2-1,0.9-1c1.3,0,4.8,0.4,6.9,0.6l0.9,0.1c1.5,0.2,4.1,1.4,4.1,5
		c0,2.5-1.8,6.7-4.3,11.7c0.8-0.2,1.5-0.3,2.3-0.5c2.3-4.7,3.9-8.7,3.9-11.2C259,58.2,256.1,56,253.3,55.7z"/>
	
		<linearGradient id="SVGID_40_" gradientUnits="userSpaceOnUse" x1="-103.7004" y1="456.3044" x2="-102.7004" y2="456.3044" gradientTransform="matrix(5.3455 -1.9798 -1.9798 -5.3455 1674.8538 2264.488)">
		<stop  offset="0" style="stop-color:#5FB233"/>
		<stop  offset="1" style="stop-color:#90C643"/>
	</linearGradient>
	<path class="st46" d="M202.8,15.1c-4.7,0-7.8,3-7.8,7.5c0,14.1,27.4,24.6,34.6,24.6c2.4,0,2.8-1.4,2.8-2.3
		C232.3,43.2,222.8,15.1,202.8,15.1z M229.5,45.4c-6.4,0-32.8-10.2-32.8-22.7c0-3.5,2.3-5.7,6-5.7c18.2,0,27.6,26.2,27.8,28
		C230.5,45.2,230.5,45.4,229.5,45.4z"/>
	
		<linearGradient id="SVGID_41_" gradientUnits="userSpaceOnUse" x1="-14.218" y1="429.9362" x2="-13.218" y2="429.9362" gradientTransform="matrix(2.465 1.3228 1.3228 -2.465 -349.7567 1157.3291)">
		<stop  offset="0" style="stop-color:#5FB233"/>
		<stop  offset="1" style="stop-color:#90C643"/>
	</linearGradient>
	<path class="st47" d="M185.9,77c-2.2,0-4.5,1-6.7,2.6h0c1.1,0.1,2.1,0.1,3.2,0.1c1.2-0.6,2.4-1,3.5-1c1.1,0,1.1,0.4,1.1,0.7
		c0,0.1,0,0.2-0.1,0.4c0.6,0,1.2,0,1.8,0c0-0.2,0.1-0.4,0.1-0.5C188.8,78.9,188.6,77,185.9,77z"/>
	
		<linearGradient id="SVGID_42_" gradientUnits="userSpaceOnUse" x1="-34.2421" y1="446.0484" x2="-33.2421" y2="446.0484" gradientTransform="matrix(3.1682 1.5841 1.5841 -3.1682 -373.052 1537.0394)">
		<stop  offset="0" style="stop-color:#5FB233"/>
		<stop  offset="1" style="stop-color:#90C643"/>
	</linearGradient>
	<path class="st48" d="M229,53.7l-1.8-0.4c-0.8-0.2-1.5-0.3-2-0.3c-1.2,0-1.9,0.4-2.3,0.8c-0.6,0.6-0.8,1.4-0.6,2.3
		c0.2,0.9,1,1.7,1.8,2.6c0.5,0.6,1.4,1.5,1.4,1.9c0,0.7-1.5,2.9-5.8,5.5c-2.6,1.6-8.1,7.6-11.9,13.7c0.7,0,1.5-0.1,2.2-0.1
		c3.6-5.4,8.3-10.7,10.6-12c4.3-2.6,6.8-5.2,6.7-7.1c0-1.1-1-2-1.9-3.1c-0.5-0.6-1.3-1.3-1.3-1.7c-0.1-0.3,0-0.5,0.1-0.6
		c0.3-0.2,1.1-0.4,2.6,0l1.8,0.4c3.4,0.8,4.6,1.2,4.6,2.9c0.1,2.1-2.5,11.5-7.3,20c0.7-0.1,1.5-0.2,2.2-0.2c4.5-8.3,7-17.2,6.9-19.8
		C234.9,55,232.2,54.4,229,53.7z"/>
	
		<linearGradient id="SVGID_43_" gradientUnits="userSpaceOnUse" x1="-125.4611" y1="558.3909" x2="-124.4611" y2="558.3909" gradientTransform="matrix(-6.6313 -1.6578 -1.6578 6.6313 231.3913 -3850.9639)">
		<stop  offset="0" style="stop-color:#5FB233"/>
		<stop  offset="1" style="stop-color:#90C643"/>
	</linearGradient>
	<path class="st49" d="M139.6,45.1c-1.8,0-9.9,1.2-16.2,7.3l-3.3,3.3c-3,3-7.3,7.4-12.2,12.1c0.7,0.2,1.4,0.4,2,0.5
		c3.9-3.8,7.8-7.6,11.5-11.4l3.3-3.3c5.8-5.6,13.3-6.8,14.9-6.8c1.8,0,3,0.8,3,1.4l1.8,0C144.5,46.3,142.1,45.1,139.6,45.1z"/>
	
		<linearGradient id="SVGID_44_" gradientUnits="userSpaceOnUse" x1="-95.0563" y1="499.2783" x2="-94.0564" y2="499.2783" gradientTransform="matrix(19.742 0 0 -19.742 2001.3738 9917.1533)">
		<stop  offset="0" style="stop-color:#529B2B"/>
		<stop  offset="0.8297" style="stop-color:#5FB233"/>
		<stop  offset="0.8297" style="stop-color:#5FB233"/>
		<stop  offset="1" style="stop-color:#5FB233"/>
	</linearGradient>
	<path class="st50" d="M142.7,48.3L142.7,48.3c0,0.6-1.4,2.3-3.4,4.5l-0.7,0.8c-1.8,2.1-8.6,11.3-13.8,18.4c0.6,0.1,1.3,0.3,1.9,0.4
		c5.1-7,11.5-15.7,13.2-17.6l0.7-0.8c2.7-3,3.9-4.4,3.9-5.7L142.7,48.3z"/>
	
		<linearGradient id="SVGID_45_" gradientUnits="userSpaceOnUse" x1="-97.2519" y1="506.5596" x2="-96.2519" y2="506.5596" gradientTransform="matrix(35.3992 0 0 -35.3992 3521.8154 17976.2988)">
		<stop  offset="0" style="stop-color:#529B2B"/>
		<stop  offset="3.956600e-02" style="stop-color:#529B2B"/>
		<stop  offset="0.8309" style="stop-color:#5AAB30"/>
		<stop  offset="0.8309" style="stop-color:#5AAB30"/>
		<stop  offset="1" style="stop-color:#5AAB30"/>
	</linearGradient>
	<path class="st51" d="M113.8,29.3c-7.2,4-14.6,9.2-21.7,15.7h0c-4.9,4.5-9.2,9.3-12.8,14c0.6,0.2,1.2,0.4,1.8,0.6
		c3.5-4.5,7.6-9,12.2-13.3c7-6.4,14.3-11.5,21.3-15.5L113.8,29.3z"/>
	
		<linearGradient id="SVGID_46_" gradientUnits="userSpaceOnUse" x1="-98.3159" y1="510.0883" x2="-97.3159" y2="510.0883" gradientTransform="matrix(57.499 0 0 -57.499 5785.4102 29388.5527)">
		<stop  offset="0" style="stop-color:#90C643"/>
		<stop  offset="1" style="stop-color:#56A32E"/>
	</linearGradient>
	<path class="st52" d="M188.6,64.2c0.5-1.7,1.2-4.3,1.2-7.7c0-2.7-0.4-5-1.3-6.8c-1.8-3.8-5.3-5.8-10.3-5.8
		c-9.5,0-20.2,4.9-45.9,29.7c0.7,0.1,1.4,0.3,2.2,0.4c24.6-23.6,34.8-28.4,43.7-28.4c3.9,0,6.7,1.3,8.2,3.9c1,1.7,1.6,4,1.6,6.8
		c0,3.2-0.7,5.6-1.2,7.2c-0.3,0.9-0.4,1.5-0.4,1.9c0,0.9,0.4,1.7,1,2.2l1.2-1.4c-0.2-0.2-0.4-0.5-0.4-0.8
		C188.3,65.4,188.4,64.8,188.6,64.2z"/>
	
		<linearGradient id="SVGID_47_" gradientUnits="userSpaceOnUse" x1="-107.9305" y1="498.5169" x2="-106.9305" y2="498.5169" gradientTransform="matrix(13.4247 -11.8553 -11.8553 -13.4247 7552.2759 5478.5771)">
		<stop  offset="0" style="stop-color:#56A32E"/>
		<stop  offset="0.5" style="stop-color:#83B43C"/>
		<stop  offset="0.5" style="stop-color:#83B43C"/>
		<stop  offset="1" style="stop-color:#5AAB30"/>
	</linearGradient>
	<path class="st53" d="M209.7,49.7c-1.6,2.7-11.5,15.3-20.5,16.9c-0.2,0-0.4,0-0.6-0.1l-1.2,1.4c0.6,0.5,1.3,0.7,2,0.5
		c10.6-1.9,22.2-17.3,22.2-18.9L209.7,49.7z"/>
	
		<linearGradient id="SVGID_48_" gradientUnits="userSpaceOnUse" x1="-106.0446" y1="524.7627" x2="-105.0446" y2="524.7627" gradientTransform="matrix(-29.9308 -9.1232 -9.1232 29.9308 1909.5055 -16619.5938)">
		<stop  offset="0" style="stop-color:#56A32E"/>
		<stop  offset="0.2986" style="stop-color:#90C643"/>
		<stop  offset="0.6648" style="stop-color:#59A72F"/>
		<stop  offset="1" style="stop-color:#90C643"/>
	</linearGradient>
	<path class="st54" d="M298.7,46c-0.6-0.8-1.7-1.2-3.2-1.2c-3.5,0-8.6,4.7-12.6,8.5h0c-1.5,1.4-3.4,3.2-4,3.5
		c-0.5-0.4-1.5-2.3-2-3.5c-0.7-1.4-1.3-2.8-2-3.8c-2.5-3.4-5.9-4.3-15.7-4.3c-2.4,0-4.3,0.1-6.1,0.2l0.1,1.8c1.8-0.1,3.7-0.2,6-0.2
		c9.2,0,12.1,0.7,14.2,3.6c0.6,0.8,1.2,2.1,1.8,3.4c1.2,2.6,2.2,4.6,3.6,4.6c0.9,0,2.1-1,5.3-4c3.4-3.2,8.6-8,11.4-8
		c1.9,0,2.1,0.5,2.1,1.7c0,0.8-0.6,1.9-1.3,3.2c-1.3,2.4-3.1,6-3.4,11.6c0.6-0.2,1.2-0.5,1.9-0.7c0.4-4.8,2-7.8,3.2-10.1
		c0.8-1.6,1.5-2.8,1.5-4.1C299.3,47.3,299.1,46.6,298.7,46z"/>
	
		<linearGradient id="SVGID_49_" gradientUnits="userSpaceOnUse" x1="-92.4964" y1="490.7886" x2="-91.4964" y2="490.7886" gradientTransform="matrix(13.025 0 0 -13.025 1444.7314 6438.1768)">
		<stop  offset="0" style="stop-color:#5FB233"/>
		<stop  offset="1" style="stop-color:#90C643"/>
	</linearGradient>
	<path class="st55" d="M252.9,45.4l-5.4,0.2c-4.8,0-5.3-0.2-5.9-1.7l-1.7,0.7c1.2,2.7,3,2.8,7.6,2.8l5.5-0.2L252.9,45.4z"/>
	
		<linearGradient id="SVGID_50_" gradientUnits="userSpaceOnUse" x1="-68.2429" y1="503.9921" x2="-67.2429" y2="503.9921" gradientTransform="matrix(6.0396 7.9945 7.9945 -6.0396 -3452.4939 3655.9167)">
		<stop  offset="0" style="stop-color:#56A32E"/>
		<stop  offset="0.4945" style="stop-color:#90C643"/>
		<stop  offset="1" style="stop-color:#90C643"/>
	</linearGradient>
	<path class="st56" d="M179.6,59.3c-0.1-1.1-1.1-2.4-3.5-2.4c-0.1,0-0.1,0-0.2,0c-3.2,0.1-13.3,7.9-20.9,16.1
		c-0.3,0.4-0.7,0.7-1,1.1c-0.8,0.9-1.7,1.9-2.5,2.9c0.7,0.1,1.4,0.2,2.1,0.3c0.5-0.7,1.1-1.3,1.7-2c0.6-0.7,1.3-1.4,1.9-2.1
		c7.7-8.1,16.5-14.5,18.7-14.5c1.1,0,1.8,0.3,1.8,0.8c0,0.1,0,0.1,0,0.2c0,2.2-2.9,4-5.4,5.7l-1.9,1.3l-0.1,0.1
		c-3.2,2.3-4.7,3.4-4.7,5.5c0,0.3,0,0.6,0.1,0.9c0.1,0.8,0.6,1.3,1.1,1.7c0.4,0.4,0.8,0.8,0.9,1.4h1.9c-0.2-1.4-1-2.1-1.5-2.7
		c-0.3-0.3-0.5-0.5-0.6-0.7c-0.2-1.5,0.3-2,3.9-4.6l0.1-0.1l1.9-1.3C176.4,64.9,179.9,62.6,179.6,59.3z"/>
	
		<linearGradient id="SVGID_51_" gradientUnits="userSpaceOnUse" x1="-68.2367" y1="503.9898" x2="-67.2367" y2="503.9898" gradientTransform="matrix(6.0384 7.9929 7.9929 -6.0384 -3454.6448 3657.301)">
		<stop  offset="0" style="stop-color:#5FB233"/>
		<stop  offset="1" style="stop-color:#90C643"/>
	</linearGradient>
	<path class="st57" d="M169.7,76.5c0-0.1,0-0.2,0-0.2h-1.9v0c0,0.1,0.1,0.3,0.1,0.4c0,0,0,0.1,0,0.1c0,0.4-0.2,1.1-0.8,2.1
		c0.7,0.1,1.3,0.1,2,0.2C169.6,78,169.8,77.1,169.7,76.5z"/>
	
		<linearGradient id="SVGID_52_" gradientUnits="userSpaceOnUse" x1="-149.4758" y1="536.9576" x2="-148.4758" y2="536.9576" gradientTransform="matrix(-4.0546 -4.8321 -4.8321 4.0546 2180.8059 -2888.5327)">
		<stop  offset="0" style="stop-color:#5FB233"/>
		<stop  offset="0.8132" style="stop-color:#9BCB52"/>
		<stop  offset="1" style="stop-color:#9BCB52"/>
	</linearGradient>
	<path class="st58" d="M241.5,43.6c-3.7-9.1-18.2-38.8-47-38.8c-7.2,0-12.2,2.8-14.3,7.8c-0.7,1.7-1,3.6-1,5.7
		c0,7.9,3.9,22.6,30.2,31.4l0.3,0.1c0,0,0,0,0.1,0l2-0.2c0-1.1-1-1.4-1.5-1.5l-0.3-0.1c-25.2-8.4-29-22.2-29-29.6
		c0-2,0.4-3.7,0.9-5.1c2.5-5.8,9.3-6.6,12.6-6.6c27.7,0,41.7,28.9,45.3,37.7l0.1,0.3l1.7-0.7L241.5,43.6z"/>
	
		<linearGradient id="SVGID_53_" gradientUnits="userSpaceOnUse" x1="-206.1725" y1="527.8307" x2="-205.1725" y2="527.8307" gradientTransform="matrix(-1.2556 -2.9186 -2.9186 1.2556 1425.5205 -1247.4031)">
		<stop  offset="0" style="stop-color:#5AAB30"/>
		<stop  offset="1" style="stop-color:#90C643"/>
	</linearGradient>
	<path class="st59" d="M172.5,1.5c-0.1-0.4-0.4-0.6-0.8-0.8c-0.8-0.3-1.8-0.5-2.8-0.6V2c0.7,0.1,1.2,0.2,1.6,0.3
		c-3.6,6.4-9.9,17.5-10.2,18c0,0,0,0.1-0.1,0.1c-0.1,0-0.2,0-0.2,0l-0.4-0.1c-5.3-0.8-9.7-1.2-13.1-1.2c-8.3,0-20.2,3.2-32.7,10.1
		l0.8,1.6c12.2-6.8,23.8-9.9,31.9-9.9c3.4,0,7.7,0.4,12.8,1.2l0.4,0.1c0.5,0.1,0.9,0,1.2-0.1c0.4-0.1,0.7-0.4,0.9-0.9
		c0.4-0.7,10.1-17.9,10.5-18.6C172.6,2.3,172.6,1.9,172.5,1.5z"/>
	<path class="st60" d="M165.7,0C151.6,0,118.5,6.7,84,31.8c-9.6,7-17.5,13.8-24,20.3c0.6,0.2,1.2,0.5,1.8,0.7
		c6.3-6.3,13.9-12.8,23.2-19.5c34.1-24.8,66.7-31.4,80.6-31.4c1.3,0,2.3,0,3.1,0.2V0.2C167.9,0,166.8,0,165.7,0z"/>
</g>
</svg>
